<?xml version="1.0" encoding="UTF-8" standalone="no"?>
<svg
   xmlns:dc="http://purl.org/dc/elements/1.1/"
   xmlns:cc="http://creativecommons.org/ns#"
   xmlns:rdf="http://www.w3.org/1999/02/22-rdf-syntax-ns#"
   xmlns:svg="http://www.w3.org/2000/svg"
   xmlns="http://www.w3.org/2000/svg"
   xmlns:xlink="http://www.w3.org/1999/xlink"
   xmlns:sodipodi="http://sodipodi.sourceforge.net/DTD/sodipodi-0.dtd"
   xmlns:inkscape="http://www.inkscape.org/namespaces/inkscape"
   inkscape:version="1.0.1 (3bc2e813f5, 2020-09-07)"
   height="85.333"
   width="685.33301"
   sodipodi:docname="streetcomplete_rect.svg"
   id="svg39"
   xml:space="preserve"
   viewBox="0 0 685.33301 85.333"
   version="1.1"><metadata
     id="metadata43"><rdf:RDF><cc:Work
         rdf:about=""><dc:format>image/svg+xml</dc:format><dc:type
           rdf:resource="http://purl.org/dc/dcmitype/StillImage" /><dc:title></dc:title></cc:Work></rdf:RDF></metadata><sodipodi:namedview
     inkscape:current-layer="svg39"
     inkscape:window-maximized="1"
     inkscape:window-y="-8"
     inkscape:window-x="1272"
     inkscape:cy="0.75431366"
     inkscape:cx="383.93676"
     inkscape:zoom="1.5226333"
     showgrid="false"
     id="namedview41"
     inkscape:window-height="1017"
     inkscape:window-width="1920"
     inkscape:pageshadow="2"
     inkscape:pageopacity="0"
     guidetolerance="10"
     gridtolerance="10"
     objecttolerance="10"
     borderopacity="1"
     bordercolor="#666666"
     pagecolor="#ffffff"
     inkscape:document-rotation="0" /><defs
     id="defs21"><linearGradient
       inkscape:collect="always"
       id="linearGradient859"><stop
         style="stop-color:#61bbf0;stop-opacity:1"
         offset="0"
         id="stop855" /><stop
         style="stop-color:#c0e4f9;stop-opacity:0;"
         offset="1"
         id="stop857" /></linearGradient><linearGradient
       id="linearGradient10483"><stop
         id="stop2"
         offset="0"
         stop-opacity="0" /><stop
         id="stop4"
         offset="1"
         stop-opacity=".27451" /></linearGradient><mask
       maskUnits="userSpaceOnUse"
       id="mask10467"><path
         id="path7"
         fill="#ffffff"
         d="m 760.81,-27.082 c 0,-176.73 -143.27,-320 -320,-320 -176.73,0 -320,143.27 -320,320 0,176.73 143.27,320 320,320 176.73,0 320,-143.27 320,-320" /></mask><radialGradient
       gradientUnits="userSpaceOnUse"
       gradientTransform="scale(0.1)"
       r="320"
       cy="419.70999"
       cx="270.14001"
       id="radialGradient10477"><stop
         id="stop10"
         offset="0"
         stop-color="#c0e4f9" /><stop
         id="stop12"
         offset="1"
         stop-color="#7db6d8" /></radialGradient><radialGradient
       xlink:href="#linearGradient10483"
       gradientUnits="userSpaceOnUse"
       gradientTransform="matrix(1,0,0,1.0554,0,10.435)"
       r="361.42001"
       cy="-17.733"
       cx="441.16"
       id="radialGradient10489" /><radialGradient
       gradientUnits="userSpaceOnUse"
       gradientTransform="matrix(0.1,0,0,0.10554,-13.6151,34.2174)"
       r="361.42001"
       cy="8.2530003"
       cx="496.54999"
       id="radialGradient4504"><stop
         id="stop16"
         offset="0"
         stop-opacity=".078431" /><stop
         id="stop18"
         offset="1"
         stop-opacity=".23529" /></radialGradient><radialGradient
       id="radialGradient10477-8"
       cx="270.14001"
       cy="419.70999"
       r="320"
       gradientTransform="scale(0.1)"
       gradientUnits="userSpaceOnUse"><stop
         stop-color="#c0e4f9"
         offset="0"
         id="stop10-9" /><stop
         stop-color="#7db6d8"
         offset="1"
         id="stop12-5" /></radialGradient><linearGradient
       inkscape:collect="always"
       xlink:href="#linearGradient859"
       id="linearGradient861"
       x1="0"
       y1="42.6665"
       x2="445.24091"
       y2="42.6665"
       gradientUnits="userSpaceOnUse" /></defs><rect
     y="0"
     x="0"
     height="85.333"
     width="445.24091"
     id="rect868"
     style="fill:url(#linearGradient861);fill-opacity:1;stroke:none;stroke-width:27.504;stroke-miterlimit:4;stroke-dasharray:none" /><path
     id="rect868-7"
     style="fill:#000000;fill-opacity:0.235294;stroke:none;stroke-width:12.0409"
     d="m 42.66698,13.340813 c -1.47289,0 -2.66601,1.191179 -2.66601,2.664062 v 2.667969 H 24.647451 c -0.554786,0 -1.33935,0.327992 -1.74414,0.728516 l -6.59961,6.542968 c -0.403016,0.39943 -0.404763,1.054275 -0.0039,1.455079 L 32.00097,43.100578 v 9.171875 c 0,0.303979 0.12156,0.580543 0.3164,0.775391 l 7.6836,7.683594 v 13.939453 c 0,0.736928 0.2983,1.40575 0.78125,1.888672 L 49.55566,85.333 H 85.333 L 129.66409,85.105201 53.01855,18.967766 C 52.83775,18.78697 52.59449,18.674797 52.32714,18.674797 H 49.10448 L 44.5537,14.124016 c -0.48293,-0.482935 -1.14983,-0.783203 -1.88672,-0.783203 z"
     sodipodi:nodetypes="sscsccccsccscccccsccs" /><g
     id="g37"
     transform="matrix(1.3333,0,0,-1.3333,0,85.333)"><path
       id="path31"
       fill="#f3cc70"
       d="M 30,52 V 8 c 0,-1.1047 0.8953,-2 2,-2 1.1047,0 2,0.89531 2,2 v 44 c 0,1.1047 -0.8953,2 -2,2 -1.1047,0 -2,-0.8953 -2,-2" /><path
       id="path33"
       fill="#495672"
       d="m 18.485,50 c -0.4161,0 -1.0043,-0.2461 -1.3079,-0.5465 l -4.95,-4.907 c -0.3031,-0.3004 -0.3031,-0.7926 0,-1.093 l 4.95,-4.907 C 17.4807,38.2461 18.0689,38 18.485,38 h 20.759 c 0.416,0 0.7562,0.3598 0.7562,0.7992 v 10.402 c 0,0.4394 -0.3402,0.7992 -0.7562,0.7992 H 18.485" /><path
       id="path35"
       fill="#ffffff"
       d="m 49.515,24 c 0.4161,0 1.0043,0.2461 1.3079,0.5465 l 4.95,4.907 c 0.3031,0.3004 0.3031,0.7926 0,1.093 l -4.95,4.907 C 50.5193,35.7539 49.9311,36 49.515,36 H 24.757 c -0.4161,0 -0.7563,-0.3598 -0.7563,-0.7992 v -10.402 c 0,-0.4394 0.3402,-0.7992 0.7563,-0.7992 h 24.758" /></g></svg>
